#!OML:ASF F:\VICON\USERDATA\INSTALL\rory3\rory3.ASF
:FULLY-SPECIFIED
:DEGREES
645
root 1.16979 15.2736 -5.57029 -2.91659 -2.22472 2.97041
lowerback -3.01205 10.6765 9.66976
upperback -3.89549 14.1587 -6.53521
thorax 1.51898 7.09057 -11.1863
lowerneck 2.42367 -7.73398 -12.8516
upperneck 49.3496 -3.72096 -11.9944
head 19.0466 -5.07764 -4.12025
rclavicle 3.85642e-014 2.54444e-014
rhumerus 64.6598 -1.93232 -72.3542
rradius 141.52
rwrist -61.1304
rhand 0.0564722 -37.7138
rfingers 7.12502
rthumb 25.6445 -66.0068
lclavicle 3.85642e-014 2.54444e-014
lhumerus -49.7767 -21.0114 86.6033
lradius 33.1103
lwrist 19.6332
lhand -15.621 -23.865
lfingers 7.12502
lthumb 10.5658 5.84946
rfemur -22.6744 -33.3751 21.919
rtibia 69.9534
rfoot -49.4384 -36.8077
rtoes 10.2937
lfemur -37.2597 -18.7714 -2.98693
ltibia 18.301
lfoot 12.6409 -7.11333
ltoes -15.4139
646
root 1.17048 15.2736 -5.56971 -2.84595 -2.07981 3.16404
lowerback -3.02625 10.6912 9.50332
upperback -3.93347 14.1826 -6.6505
thorax 1.48463 7.10221 -11.2192
lowerneck 2.46654 -7.78497 -13.0201
upperneck 49.3682 -3.85893 -11.8122
head 19.0643 -5.14437 -4.02246
rclavicle -1.59028e-015 -1.59028e-015
rhumerus 64.6927 -2.076 -72.3442
rradius 141.715
rwrist -61.2263
rhand -0.115594 -37.6173
rfingers 7.12502
rthumb 25.4796 -65.9339
lclavicle -1.59028e-015 -1.59028e-015
lhumerus -49.8196 -20.915 86.4981
lradius 33.0376
lwrist 19.523
lhand -15.3043 -24.415
lfingers 7.12502
lthumb 10.8713 5.2836
rfemur -22.7663 -33.59 21.6898
rtibia 69.9866
rfoot -49.2295 -36.9115
rtoes 10.1826
lfemur -37.3266 -18.7535 -3.25818
ltibia 18.2555
lfoot 12.6434 -7.27826
ltoes -15.8632
647
root 1.17227 15.2746 -5.56649 -2.78975 -1.98813 3.39716
lowerback -3.14702 10.6739 9.21272
upperback -3.86958 14.1534 -6.66089
thorax 1.54753 7.09431 -11.0493
lowerneck 2.4487 -7.76675 -13.2644
upperneck 49.2821 -3.84745 -11.6979
head 19.0383 -5.16664 -3.91577
rclavicle 3.10104e-014 1.59028e-015
rhumerus 65.0138 -2.06012 -72.3263
rradius 141.775
rwrist -61.327
rhand -0.247474 -37.7966
rfingers 7.12502
rthumb 25.3533 -66.1312
lclavicle 3.10104e-014 1.59028e-015
lhumerus -49.697 -20.5582 86.4132
lradius 32.921
lwrist 19.3736
lhand -13.9877 -24.5493
lfingers 7.12502
lthumb 12.141 5.07841
rfemur -22.8018 -33.7786 21.3685
rtibia 70.0197
rfoot -49.2496 -36.6751
rtoes 10.2397
lfemur -37.3952 -18.8275 -3.51598
ltibia 18.2743
lfoot 12.594 -7.32652
ltoes -16.075
648
root 1.17243 15.2744 -5.563 -2.80163 -2.01929 3.21894
lowerback -3.12555 10.6583 9.32553
upperback -3.85579 14.1287 -6.53722
thorax 1.53761 7.07863 -10.9839
lowerneck 2.48604 -7.73368 -13.475
upperneck 49.1943 -3.79543 -11.6657
head 18.9937 -5.17565 -3.84647
rclavicle -7.95139e-015 2.22639e-014
rhumerus 65.3054 -1.92405 -72.4046
rradius 141.761
rwrist -61.3404
rhand -0.278768 -38.567
rfingers 7.12502
rthumb 25.3233 -66.9059
lclavicle -7.95139e-015 2.22639e-014
lhumerus -49.7701 -20.301 86.4608
lradius 32.8608
lwrist 19.3571
lhand -13.5297 -25.0965
lfingers 7.12502
lthumb 12.5825 4.50456
rfemur -22.7403 -33.8057 21.5357
rtibia 70.003
rfoot -49.274 -36.6338
rtoes 9.94265
lfemur -37.392 -18.7646 -3.34161
ltibia 18.3225
lfoot 12.5235 -7.38574
ltoes -15.957
649
root 1.17386 15.2734 -5.56009 -2.74713 -2.01825 2.99147
lowerback -3.05617 10.6303 9.56169
upperback -3.92043 14.0922 -6.48202
thorax 1.46054 7.05123 -11.0782
lowerneck 2.40417 -7.69918 -13.5061
upperneck 49.1744 -3.69613 -11.7266
head 19.0078 -5.14813 -3.86211
rclavicle 1.87056e-013 6.36111e-014
rhumerus 65.4881 -1.7947 -72.6089
rradius 141.795
rwrist -61.3429
rhand -0.34796 -39.7428
rfingers 7.12502
rthumb 25.257 -68.091
lclavicle 1.87056e-013 6.36111e-014
lhumerus -50.0644 -20.2945 86.5963
lradius 32.9716
lwrist 19.4582
lhand -14.1482 -25.7137
lfingers 7.12502
lthumb 11.9862 3.92307
rfemur -22.8052 -33.8813 21.8219
rtibia 69.9901
rfoot -48.979 -37.0293
rtoes 9.32349
lfemur -37.4516 -18.6808 -3.10977
ltibia 18.332
lfoot 12.5363 -7.44218
ltoes -15.831
650
root 1.17901 15.276 -5.55419 -2.55607 -1.9162 3.17768
lowerback -3.13858 10.6376 9.42238
upperback -4.05646 14.1004 -6.61485
thorax 1.36566 7.04685 -11.145
lowerneck 2.34194 -7.69971 -13.547
upperneck 49.2474 -3.66292 -11.7307
head 19.082 -5.14561 -3.86975
rclavicle -6.61953e-014 -1.90833e-014
rhumerus 65.5204 -1.81492 -72.7887
rradius 141.809
rwrist -61.4286
rhand -0.25498 -40.1029
rfingers 7.12502
rthumb 25.3461 -68.4385
lclavicle -6.61953e-014 -1.90833e-014
lhumerus -50.4043 -20.4172 86.7256
lradius 33.1633
lwrist 19.4707
lhand -14.8901 -25.4304
lfingers 7.12502
lthumb 11.2708 4.24684
rfemur -22.985 -34.1186 21.6214
rtibia 69.9439
rfoot -48.7679 -36.9443
rtoes 9.37804
lfemur -37.6891 -18.7094 -3.30648
ltibia 18.4105
lfoot 12.4548 -7.50511
ltoes -16.165
651
root 1.1869 15.281 -5.55119 -2.30931 -1.74187 3.61014
lowerback -3.35117 10.6536 9.05061
upperback -4.18042 14.1151 -6.8268
thorax 1.32451 7.05171 -11.1443
lowerneck 2.40803 -7.74696 -13.7192
upperneck 49.3285 -3.75914 -11.6213
head 19.1405 -5.20615 -3.81173
rclavicle -1.30602e-013 1.27222e-014
rhumerus 65.458 -1.9132 -72.8575
rradius 141.855
rwrist -61.4674
rhand -0.166426 -39.7088
rfingers 7.12502
rthumb 25.431 -68.0324
lclavicle -1.30602e-013 1.27222e-014
lhumerus -50.5234 -20.3346 86.6705
lradius 33.1135
lwrist 19.2395
lhand -14.9317 -24.9896
lfingers 7.12502
lthumb 11.2307 4.68974
rfemur -23.2507 -34.5726 21.0989
rtibia 69.9423
rfoot -48.3332 -36.8745
rtoes 9.13235
lfemur -37.9411 -18.7695 -3.8027
ltibia 18.3744
lfoot 12.3396 -7.68789
ltoes -16.7149
652
root 1.16514 15.2921 -5.54324 -2.89753 -2.14095 2.6585
lowerback -2.82827 10.7341 9.89556
upperback -4.01451 14.2467 -6.44811
thorax 1.3433 7.11704 -11.249
lowerneck 2.36224 -7.77894 -13.7809
upperneck 49.312 -3.79462 -11.6175
head 19.1472 -5.23136 -3.80629
rclavicle 1.05555e-013 2.8625e-014
rhumerus 65.5619 -1.95663 -72.9041
rradius 141.995
rwrist -61.4655
rhand -0.153056 -39.4085
rfingers 7.12502
rthumb 25.4438 -67.7303
lclavicle 1.05555e-013 2.8625e-014
lhumerus -50.35 -19.9758 86.4416
lradius 32.9895
lwrist 19.1261
lhand -14.6034 -24.8247
lfingers 7.12502
lthumb 11.5472 4.83726
rfemur -22.3556 -34.0767 22.0399
rtibia 69.6264
rfoot -48.4021 -37.3367
rtoes 8.92233
lfemur -37.0665 -18.3577 -2.93389
ltibia 18.2884
lfoot 12.1652 -7.92494
ltoes -16.9411
653
root 1.16742 15.2958 -5.54012 -2.85703 -1.98868 2.80945
lowerback -2.94759 10.7241 9.77689
upperback -3.98925 14.227 -6.53939
thorax 1.42728 7.11544 -11.2598
lowerneck 2.37825 -7.78936 -13.6889
upperneck 49.2783 -3.8138 -11.6516
head 19.1071 -5.22527 -3.83262
rclavicle 5.30755e-014 -2.06736e-014
rhumerus 65.6633 -2.05098 -72.9721
rradius 142.084
rwrist -61.4576
rhand 0.0505382 -39.1203
rfingers 7.12502
rthumb 25.6388 -67.4141
lclavicle 5.30755e-014 -2.06736e-014
lhumerus -50.3461 -19.8419 86.2971
lradius 33.0778
lwrist 19.3252
lhand -14.1607 -24.724
lfingers 7.12502
lthumb 11.9742 4.91348
rfemur -22.3087 -34.3041 21.7993
rtibia 69.5557
rfoot -48.4053 -37.0578
rtoes 9.1297
lfemur -37.1169 -18.452 -3.123
ltibia 18.2453
lfoot 12.2693 -7.9053
ltoes -16.7727
654
root 1.16839 15.2971 -5.53544 -2.84115 -1.88667 2.88068
lowerback -2.95951 10.7438 9.73987
upperback -4.03447 14.2557 -6.62995
thorax 1.4085 7.12905 -11.3352
lowerneck 2.48314 -7.8281 -13.6275
upperneck 49.2691 -3.90433 -11.6491
head 19.063 -5.2507 -3.84398
rclavicle -1.91628e-013 3.97569e-014
rhumerus 65.7087 -2.1664 -73.0044
rradius 142.079
rwrist -61.4132
rhand 0.1437 -38.8091
rfingers 7.12502
rthumb 25.728 -67.09
lclavicle -1.91628e-013 3.97569e-014
lhumerus -50.5343 -19.9131 86.2515
lradius 33.1164
lwrist 19.4623
lhand -14.1403 -24.9677
lfingers 7.12502
lthumb 11.9939 4.66862
rfemur -22.2335 -34.4108 21.6678
rtibia 69.4693
rfoot -48.4583 -36.7835
rtoes 9.49568
lfemur -37.1591 -18.4814 -3.23752
ltibia 18.2702
lfoot 12.294 -7.89868
ltoes -16.6871
